<svg width="29" height="29" viewBox="0 0 29 29" fill="none" xmlns="http://www.w3.org/2000/svg">
<path d="M0.330078 14.2856C0.330078 6.55366 6.59809 0.285645 14.3301 0.285645C22.0621 0.285645 28.3301 6.55366 28.3301 14.2856C28.3301 22.0176 22.0621 28.2856 14.3301 28.2856C6.59809 28.2856 0.330078 22.0176 0.330078 14.2856Z" fill="#808390" fill-opacity="0.16"/>
<g clip-path="url(#clip0_684_55662)">
<path d="M15.6628 7.61896H10.3294C9.97581 7.61896 9.63667 7.75943 9.38662 8.00948C9.13657 8.25953 8.99609 8.59867 8.99609 8.95229V19.619C8.99609 19.9726 9.13657 20.3117 9.38662 20.5618C9.63667 20.8118 9.97581 20.9523 10.3294 20.9523H18.3294C18.683 20.9523 19.0222 20.8118 19.2722 20.5618C19.5223 20.3117 19.6628 19.9726 19.6628 19.619V11.619M15.6628 7.61896L19.6628 11.619M15.6628 7.61896L15.6628 11.619H19.6628M16.9961 14.9523H11.6628M16.9961 17.619H11.6628M12.9961 12.2856H11.6628" stroke="#5F6167" stroke-width="1.6" stroke-linecap="round" stroke-linejoin="round"/>
</g>
<defs>
<clipPath id="clip0_684_55662">
<rect width="16" height="16" fill="white" transform="translate(6.33008 6.28564)"/>
</clipPath>
</defs>
</svg>
