<svg width="42" height="43" viewBox="0 0 42 43" fill="none" xmlns="http://www.w3.org/2000/svg">
<path d="M-0.00976562 6.96973C-0.00976562 3.65602 2.67653 0.969727 5.99023 0.969727H35.9902C39.3039 0.969727 41.9902 3.65602 41.9902 6.96973V36.9697C41.9902 40.2834 39.3039 42.9697 35.9902 42.9697H5.99023C2.67653 42.9697 -0.00976562 40.2834 -0.00976562 36.9697V6.96973Z" fill="#28C76F" fill-opacity="0.16"/>
<path d="M17.7402 20.8864L20.9902 24.1364L31.8236 13.3031M30.7402 21.9697V29.5531C30.7402 30.1277 30.512 30.6788 30.1056 31.0851C29.6993 31.4915 29.1482 31.7197 28.5736 31.7197H13.4069C12.8323 31.7197 12.2812 31.4915 11.8748 31.0851C11.4685 30.6788 11.2402 30.1277 11.2402 29.5531V14.3864C11.2402 13.8118 11.4685 13.2607 11.8748 12.8543C12.2812 12.448 12.8323 12.2197 13.4069 12.2197H25.3236" stroke="#28C76F" stroke-width="1.6" stroke-linecap="round" stroke-linejoin="round"/>
</svg>
