<svg width="42" height="43" viewBox="0 0 42 43" fill="none" xmlns="http://www.w3.org/2000/svg">
<path d="M-0.00976562 6.96973C-0.00976562 3.65602 2.67653 0.969727 5.99023 0.969727H35.9902C39.3039 0.969727 41.9902 3.65602 41.9902 6.96973V36.9697C41.9902 40.2834 39.3039 42.9697 35.9902 42.9697H5.99023C2.67653 42.9697 -0.00976562 40.2834 -0.00976562 36.9697V6.96973Z" fill="#FF4C51" fill-opacity="0.16"/>
<g clip-path="url(#clip0_7346_32255)">
<path d="M20.9906 18.7197V23.053M20.9906 27.3864H21.0014M19.1381 13.1514L9.96223 28.4697C9.77304 28.7973 9.67294 29.1688 9.67188 29.5471C9.67082 29.9254 9.76884 30.2974 9.95619 30.6261C10.1435 30.9548 10.4137 31.2287 10.7397 31.4205C11.0658 31.6124 11.4364 31.7155 11.8147 31.7197H30.1664C30.5447 31.7155 30.9153 31.6124 31.2414 31.4205C31.5674 31.2287 31.8376 30.9548 32.0249 30.6261C32.2123 30.2974 32.3103 29.9254 32.3092 29.5471C32.3082 29.1688 32.2081 28.7973 32.0189 28.4697L22.8431 13.1514C22.6499 12.833 22.378 12.5698 22.0535 12.3871C21.729 12.2044 21.3629 12.1084 20.9906 12.1084C20.6182 12.1084 20.2521 12.2044 19.9276 12.3871C19.6031 12.5698 19.3312 12.833 19.1381 13.1514Z" stroke="#FF4C51" stroke-width="1.6" stroke-linecap="round" stroke-linejoin="round"/>
</g>
<defs>
<clipPath id="clip0_7346_32255">
<rect width="26" height="26" fill="white" transform="translate(7.99023 8.96973)"/>
</clipPath>
</defs>
</svg>
