<svg width="16" height="20" viewBox="0 0 16 20" fill="none" xmlns="http://www.w3.org/2000/svg">
<g clip-path="url(#clip0_3930_89486)">
<path fill-rule="evenodd" clip-rule="evenodd" d="M15.3125 5.26312V18.4209C15.3125 19.2931 14.6031 20 13.7284 20H1.58406C0.709062 20 0 19.2931 0 18.4209V1.57906C0 0.706875 0.709062 0 1.58406 0H10.0322L15.3125 5.26312Z" fill="#CB0606"/>
<path fill-rule="evenodd" clip-rule="evenodd" d="M15.3124 4.96844V5.62344H10.9959C10.1021 5.62344 9.68994 4.89844 9.68994 4.00437V0H10.3437L15.3124 4.96844Z" fill="#FB8D8D"/>
<path fill-rule="evenodd" clip-rule="evenodd" d="M11.7518 10.6397C11.6155 10.5947 11.4843 10.5719 11.3577 10.5719C11.214 10.5719 11.1152 10.6015 11.0611 10.6609C11.0074 10.7203 10.9805 10.8253 10.9805 10.9762V11.2647H11.5846V11.844H10.9805V14.23H10.2486V11.844H9.87146V11.2647H10.2486V10.9762C10.2486 10.6087 10.3399 10.3431 10.5224 10.179C10.7049 10.015 10.9793 9.93311 11.3461 9.93311C11.5183 9.93311 11.7008 9.95654 11.8936 10.0037L11.7518 10.6397ZM8.68614 13.9415C8.54989 14.0565 8.40614 14.1481 8.25489 14.2159C8.10364 14.2837 7.93177 14.3175 7.73896 14.3175C7.36458 14.3175 7.07802 14.1828 6.87958 13.9134C6.68083 13.6437 6.58177 13.2631 6.58177 12.7712C6.58177 12.2681 6.69083 11.8772 6.90927 11.5981C7.12771 11.3194 7.43427 11.1797 7.82958 11.1797C7.96958 11.1797 8.11302 11.2084 8.26052 11.2659C8.40802 11.3234 8.5302 11.3965 8.62645 11.485V10.0206H9.35833V14.23H8.68614V13.9415ZM8.62645 12.0872C8.54895 12.0175 8.45302 11.9556 8.33864 11.9019C8.22427 11.8484 8.10739 11.8215 7.98833 11.8215C7.79177 11.8215 7.63396 11.9059 7.51489 12.0744C7.39552 12.2431 7.33614 12.4715 7.33614 12.76C7.33614 13.0447 7.38489 13.2678 7.48208 13.43C7.57958 13.5922 7.73021 13.6731 7.93458 13.6731C8.05552 13.6731 8.17896 13.6453 8.30458 13.5897C8.4302 13.534 8.5377 13.4656 8.62645 13.3847V12.0872ZM5.49833 14.1253C5.31864 14.2534 5.10427 14.3175 4.85458 14.3175C4.52552 14.3175 4.24489 14.215 4.01239 14.0094V15.3465H3.28052V11.2647H3.95552V11.5556C4.09177 11.4387 4.23489 11.3469 4.38521 11.28C4.53552 11.2131 4.70802 11.1797 4.90271 11.1797C5.27896 11.1797 5.56552 11.3115 5.76208 11.5756C5.95864 11.8394 6.05708 12.2228 6.05708 12.7259C6.05708 13.0447 6.00896 13.3253 5.91239 13.5684C5.81583 13.8115 5.67802 13.9972 5.49833 14.1253ZM5.15239 12.0631C5.05208 11.9019 4.9027 11.8215 4.70427 11.8215C4.5852 11.8215 4.4627 11.8494 4.33708 11.9047C4.21114 11.9603 4.10302 12.0287 4.01239 12.1097V13.4072C4.08989 13.4772 4.18583 13.5387 4.3002 13.5925C4.41458 13.6462 4.53208 13.6731 4.65333 13.6731C4.85364 13.6731 5.01208 13.5878 5.12833 13.4172C5.24458 13.2465 5.30271 13.02 5.30271 12.7375C5.30271 12.449 5.25239 12.2244 5.15239 12.0631Z" fill="white"/>
</g>
<defs>
<clipPath id="clip0_3930_89486">
<rect width="15.3125" height="20" fill="white"/>
</clipPath>
</defs>
</svg>
