<svg id="Layer_1" enable-background="new 0 0 491.5 491.5" viewBox="0 0 491.5 491.5" xmlns="http://www.w3.org/2000/svg" xmlns:xlink="http://www.w3.org/1999/xlink"><linearGradient id="SVGID_1_" gradientUnits="userSpaceOnUse" x1="245.8" x2="245.8" y1="70.4" y2="421.2"><stop offset="0" stop-color="#f704fe"/><stop offset="1" stop-color="#24bce3"/></linearGradient><path d="m349.1 335.1c-.4-.5-.8-1-1.3-1.4-.2-.2-.3-.3-.5-.5-1.9-1.6-4.3-2.5-6.9-2.5-3.6 0-6.7 1.7-8.7 4.4l-18.2 24.1c-3.6 4.8-2.6 11.5 2.1 15.1 4.3 3.2 10.2 2.8 14-.8v2.4c0 13-10.6 23.7-23.6 23.7h-72c-6 0-10.8 4.8-10.8 10.8s4.8 10.8 10.8 10.8h72c25 0 45.3-20.3 45.3-45.3v-2.4c2 1.9 4.7 3 7.5 3 2.3 0 4.6-.8 6.5-2.2 4.8-3.6 5.7-10.4 2.1-15.1zm-90.5-49c-22.6-18-36.6-43-36.6-70.6 0-3.2.2-6.4.6-9.6-20.6-14.7-47.1-22.8-74.8-22.8-61.9 0-112.2 40.1-112.2 89.3 0 20.3 8.4 39.5 24.3 55.4.9.9 1.4 2.1 1.4 3.4v57.3l51.7-29.9c1-.6 2.3-.8 3.5-.5 10.1 2.3 20.7 3.5 31.3 3.5 55.3.1 102.4-32.2 110.8-75.5zm-114.5 40.9c2.2 1.5 2.7 4.5 1.2 6.7-.9 1.3-2.4 2-3.9 2-.9 0-1.9-.3-2.8-.9-27.1-19-40.4-39.2-39.7-60.1.1-2.1 1.5-3.9 3.6-4.5 2-.6 4.2.3 5.3 2.1 1.9 3 5.1 4.8 8.6 4.8 5.6 0 10.2-4.6 10.2-10.1v-35.7h-33.9c-2.7 0-4.8-2.1-4.8-4.8s2.2-4.8 4.8-4.8h38.6 47.7 23.7c2.7 0 4.8 2.2 4.8 4.8 0 2.7-2.2 4.8-4.8 4.8h-18.9v35.7 60.1c0 2.6-2.2 4.8-4.8 4.8-2.7 0-4.8-2.2-4.8-4.8v-55.3h-38.7c-2.2 8.6-9.9 15-19.2 15-2.3 0-4.6-.4-6.7-1.2 3.6 14 15.1 27.8 34.5 41.4zm199.7-200.7c-57.1 0-104.4 34.1-111.3 78.1 0 .1 0 .2-.1.3-.5 3.6-.8 7.2-.8 10.8 0 49.2 50.3 89.3 112.2 89.3 10.6 0 21.2-1.2 31.3-3.5.4-.1.7-.1 1.1-.1.8 0 1.7.2 2.4.6l51.7 29.9v-57.3c0-1.3.5-2.5 1.4-3.4 15.9-15.9 24.3-35.1 24.3-55.4 0-49.3-50.3-89.3-112.2-89.3zm56.3 142.6c-2.5.7-5.2-.8-5.9-3.3l-9.5-34.1h-81.7l-9.5 34.1c-.6 2.1-2.5 3.5-4.6 3.5-.4 0-.9-.1-1.3-.2-2.5-.7-4-3.4-3.3-5.9l10.5-37.5c0-.1 0-.2.1-.2l15.8-56.6c3.7-13.2 19.4-19.2 33.3-19.2s29.6 5.9 33.3 19.2l15.8 56.7c0 .1 0 .1.1.2l10.5 37.5c.5 2.4-1 5-3.6 5.8zm-56.3-109.9c-10.3 0-21.8 4.2-24 12.1l-14.1 50.7h76.3l-14.2-50.7c-2.2-7.9-13.7-12.1-24-12.1zm-207.6 72.4h38.1v30.9h-38.1zm6.3-74.9c.4.5.8 1 1.3 1.4l.5.5c1.9 1.6 4.3 2.5 6.9 2.5 3.6 0 6.7-1.7 8.7-4.4l18.2-24.1c3.6-4.8 2.6-11.5-2.1-15.1-4.3-3.2-10.2-2.8-14 .8v-2.4c0-13 10.6-23.7 23.6-23.7h72c6 0 10.8-4.8 10.8-10.8s-4.8-10.8-10.8-10.8h-72c-25 0-45.3 20.3-45.3 45.3v2.4c-2-1.9-4.7-3-7.5-3-2.3 0-4.6.8-6.5 2.2-4.8 3.6-5.7 10.4-2.1 15.1z" fill="url(#SVGID_1_)"/></svg>